<svg width="17" height="21" viewBox="0 0 17 21" fill="none" xmlns="http://www.w3.org/2000/svg">
<path d="M8.75 0.67334C5.95 0.67334 3.75 2.87334 3.75 5.67334C3.75 8.47334 5.95 10.6733 8.75 10.6733C11.55 10.6733 13.75 8.47334 13.75 5.67334C13.75 2.87334 11.55 0.67334 8.75 0.67334ZM8.75 2.17334C10.65 2.17334 12.25 3.77334 12.25 5.67334C12.25 7.57334 10.65 9.17334 8.75 9.17334C6.85 9.17334 5.25 7.57334 5.25 5.67334C5.25 3.77334 6.85 2.17334 8.75 2.17334ZM3.05 12.6733C1.75 12.6733 0.75 13.6733 0.75 14.9733V15.5733C0.75 17.0733 1.65 18.3733 3.15 19.2733C4.65 20.1733 6.45 20.6733 8.75 20.6733C11.05 20.6733 12.95 20.1733 14.35 19.1733C15.75 18.1733 16.75 16.9733 16.75 15.4733V14.8733C16.75 13.6733 15.75 12.5733 14.45 12.5733H3.05V12.6733ZM3.05 14.1733H14.55C14.95 14.1733 15.35 14.4733 15.35 14.9733V15.5733C15.35 16.3733 14.85 17.2733 13.65 17.9733C12.45 18.6733 10.75 19.1733 8.75 19.1733C6.75 19.1733 5.05 18.6733 3.95 17.9733C2.85 17.2733 2.25 16.3733 2.25 15.5733V14.9733C2.25 14.4733 2.55 14.1733 3.05 14.1733Z" fill="#212629"/>
</svg>
